<svg xmlns="http://www.w3.org/2000/svg" xmlns:xlink="http://www.w3.org/1999/xlink" style="shape-rendering:geometricPrecision;text-rendering:geometricPrecision;image-rendering:optimizeQuality;fill-rule:evenodd;clip-rule:evenodd" width="500" height="500" viewBox="0 0 1000 500" xml:space="preserve"><defs><marker id="marker1" markerHeight="3" markerUnits="strokeWidth" markerWidth="4" orient="auto" refX="1" refY="5" viewBox="0 0 10 10"><polyline fill="#000" points="0 0 10 5 0 10 1 5"/></marker><marker id="marker2" markerHeight="3" markerUnits="strokeWidth" markerWidth="4" orient="auto" refX="1" refY="5" viewBox="0 0 10 10"><polyline fill="#32cd32" points="0 0 10 5 0 10 1 5"/></marker><path id="text_curve" fill="none" stroke="#90ee90" stroke-width="4" d="M9.316,102c17.118-20.063,67.522-33.783,124.105-33.783c54.847,0,104.077,12.892,122.576,32.099"/><path id="path1" fill="none" stroke="#90ee90" stroke-width="4" marker-end="url(#marker1)" d="M10,150 A15 15 180 0 1 70 140 A15 25 180 0 0 130 130 A15 55 180 0 1 190 120"/><path id="CurvePath" stroke="red" stroke-width="3" marker-end="url(#marker1)" marker-mid="url(#marker2)" d="M 100 300 C 200 150 150 50 300 150 C 500 300 600 300 700 200 C 800 100 900 100 900 100"/><path id="CurvePath2" stroke="red" stroke-width="1" marker-end="url(#marker1)" d="M 50 350 a 150 50 0 0 1 250 50 l 150 0"/><path id="LinePath" d="M 10 430 l 650 0"/><path id="LinePath2" d="M 10 470 l 650 0"/></defs><text x="219" y="330" fill="#00f" stroke="red" stroke-width="1" font-family="Comic Sans MS" font-size="52" letter-spacing="0" text-anchor="middle" style="text-decoration:underline"><textPath startOffset="50%" xlink:href="#text_curve">EXAMPLE</textPath></text><use fill="none" stroke="red" xlink:href="#CurvePath"/><text font-family="Verdana" font-size="32.5" text-anchor="middle"><textPath startOffset="50%" xlink:href="#CurvePath">We go up, then we go down, then up again once more</textPath></text><use fill="none" stroke="#f0f" stroke-width="1.5" xlink:href="#LinePath"/><text font-family="Times" font-size="32.5" letter-spacing="3.5" text-anchor="end"><textPath startOffset="100%" xlink:href="#LinePath">Right aligned text on a straight line</textPath></text><use fill="none" stroke="#f0f" stroke-width="1.5" xlink:href="#LinePath2"/><text font-family="Times" font-size="32.5" text-anchor="justify"><textPath xlink:href="#LinePath2">Non standard text-anchor=&quot;justify&quot;</textPath></text><use fill="none" xlink:href="#CurvePath2"/><text dx="0 0 0 0 0 0 0 0 0 0 0 0 0 0 0 0 0 0 0 0 0 0 0 0 0 0 20" font-family="Times" font-size="24" letter-spacing="2" text-anchor="start"><textPath startOffset="0%" xlink:href="#CurvePath2">We go up, then we go down, then straight</textPath></text></svg>