<svg xmlns="http://www.w3.org/2000/svg" width="600" height="400" version="1.1"><defs><clipPath id="highcharts-1110"><rect width="600" height="400" x="0" y="0" fill="none" stroke-width="0" rx="0" ry="0"/></clipPath><linearGradient id="highcharts-1111" x1="0%" x2="100%" y1="18%" y2="82%" gradientUnits="objectBoundingBox"><stop offset="0%" stop-color="#bbc0b5" stop-opacity="1"/><stop offset="100%" stop-color="#ecf0e8" stop-opacity="1"/></linearGradient><linearGradient id="highcharts-1112" x1="0%" x2="100%" y1="51%" y2="49%" gradientUnits="objectBoundingBox"><stop offset="0%" stop-color="#929e82" stop-opacity="1"/><stop offset="100%" stop-color="#e2e7db" stop-opacity="1"/></linearGradient><linearGradient id="highcharts-1113" x1="75%" x2="25%" y1="100%" y2="0%" gradientUnits="objectBoundingBox"><stop offset="0%" stop-color="#3c4135" stop-opacity="1"/><stop offset="100%" stop-color="#818c72" stop-opacity="1"/></linearGradient><linearGradient id="highcharts-1114" x1="50%" x2="50%" y1="100%" y2="0%" gradientUnits="objectBoundingBox"><stop offset="0%" stop-color="#6f7963" stop-opacity="1"/><stop offset="100%" stop-color="#d1dac7" stop-opacity="1"/></linearGradient><linearGradient id="highcharts-1115" x1="0%" x2="100%" y1="58%" y2="42%" gradientUnits="objectBoundingBox"><stop offset="0%" stop-color="#94b7d2" stop-opacity="1"/><stop offset="100%" stop-color="#e3f2fd" stop-opacity="1"/></linearGradient><linearGradient id="highcharts-1116" x1="71%" x2="29%" y1="100%" y2="0%" gradientUnits="objectBoundingBox"><stop offset="0%" stop-color="#3d4b56" stop-opacity="1"/><stop offset="100%" stop-color="#83a2ba" stop-opacity="1"/></linearGradient><linearGradient id="highcharts-1117" x1="50%" x2="50%" y1="100%" y2="0%" gradientUnits="objectBoundingBox"><stop offset="0%" stop-color="#718ca1" stop-opacity="1"/><stop offset="100%" stop-color="#d3eafb" stop-opacity="1"/></linearGradient><linearGradient id="highcharts-1118" x1="0%" x2="100%" y1="58%" y2="42%" gradientUnits="objectBoundingBox"><stop offset="0%" stop-color="#d1a00c" stop-opacity="1"/><stop offset="100%" stop-color="#fce8ab" stop-opacity="1"/></linearGradient><linearGradient id="highcharts-1119" x1="61%" x2="39%" y1="100%" y2="0%" gradientUnits="objectBoundingBox"><stop offset="0%" stop-color="#564205" stop-opacity="1"/><stop offset="100%" stop-color="#b88d0b" stop-opacity="1"/></linearGradient><linearGradient id="highcharts-1120" x1="50%" x2="50%" y1="100%" y2="0%" gradientUnits="objectBoundingBox"><stop offset="0%" stop-color="#9f7a09" stop-opacity="1"/><stop offset="100%" stop-color="#fadb7b" stop-opacity="1"/></linearGradient><linearGradient id="highcharts-1121" x1="0%" x2="100%" y1="58%" y2="42%" gradientUnits="objectBoundingBox"><stop offset="0%" stop-color="#769e00" stop-opacity="1"/><stop offset="100%" stop-color="#d7e7a6" stop-opacity="1"/></linearGradient><linearGradient id="highcharts-1122" x1="55%" x2="45%" y1="100%" y2="0%" gradientUnits="objectBoundingBox"><stop offset="0%" stop-color="#304100" stop-opacity="1"/><stop offset="100%" stop-color="#688b00" stop-opacity="1"/></linearGradient><linearGradient id="highcharts-1123" x1="50%" x2="50%" y1="100%" y2="0%" gradientUnits="objectBoundingBox"><stop offset="0%" stop-color="#5a7800" stop-opacity="1"/><stop offset="100%" stop-color="#bfd973" stop-opacity="1"/></linearGradient><linearGradient id="highcharts-1124" x1="0%" x2="100%" y1="58%" y2="42%" gradientUnits="objectBoundingBox"><stop offset="0%" stop-color="#d8783b" stop-opacity="1"/><stop offset="100%" stop-color="#ffd8be" stop-opacity="1"/></linearGradient><linearGradient id="highcharts-1125" x1="53%" x2="47%" y1="100%" y2="0%" gradientUnits="objectBoundingBox"><stop offset="0%" stop-color="#593118" stop-opacity="1"/><stop offset="100%" stop-color="#bf6a34" stop-opacity="1"/></linearGradient><linearGradient id="highcharts-1126" x1="50%" x2="50%" y1="100%" y2="0%" gradientUnits="objectBoundingBox"><stop offset="0%" stop-color="#a55c2d" stop-opacity="1"/><stop offset="100%" stop-color="#ffc199" stop-opacity="1"/></linearGradient><linearGradient id="highcharts-1127" x1="0%" x2="100%" y1="58%" y2="42%" gradientUnits="objectBoundingBox"><stop offset="0%" stop-color="#007878" stop-opacity="1"/><stop offset="100%" stop-color="#a6d8d8" stop-opacity="1"/></linearGradient><linearGradient id="highcharts-1128" x1="52%" x2="48%" y1="100%" y2="0%" gradientUnits="objectBoundingBox"><stop offset="0%" stop-color="#003131" stop-opacity="1"/><stop offset="100%" stop-color="#006a6a" stop-opacity="1"/></linearGradient><linearGradient id="highcharts-1129" x1="50%" x2="50%" y1="100%" y2="0%" gradientUnits="objectBoundingBox"><stop offset="0%" stop-color="#005c5c" stop-opacity="1"/><stop offset="100%" stop-color="#73c1c1" stop-opacity="1"/></linearGradient><linearGradient id="highcharts-1354" x1="0%" x2="100%" y1="58%" y2="42%" gradientUnits="objectBoundingBox"><stop offset="0%" stop-color="#769e00" stop-opacity="1"/><stop offset="100%" stop-color="#d7e7a6" stop-opacity="1"/></linearGradient><linearGradient id="highcharts-1355" x1="55%" x2="45%" y1="100%" y2="0%" gradientUnits="objectBoundingBox"><stop offset="0%" stop-color="#304100" stop-opacity="1"/><stop offset="100%" stop-color="#688b00" stop-opacity="1"/></linearGradient><linearGradient id="highcharts-1356" x1="50%" x2="50%" y1="100%" y2="0%" gradientUnits="objectBoundingBox"><stop offset="0%" stop-color="#5a7800" stop-opacity="1"/><stop offset="100%" stop-color="#bfd973" stop-opacity="1"/></linearGradient><linearGradient id="highcharts-1357" x1="0%" x2="100%" y1="58%" y2="42%" gradientUnits="objectBoundingBox"><stop offset="0%" stop-color="#d8783b" stop-opacity="1"/><stop offset="100%" stop-color="#ffd8be" stop-opacity="1"/></linearGradient><linearGradient id="highcharts-1358" x1="53%" x2="47%" y1="100%" y2="0%" gradientUnits="objectBoundingBox"><stop offset="0%" stop-color="#593118" stop-opacity="1"/><stop offset="100%" stop-color="#bf6a34" stop-opacity="1"/></linearGradient><linearGradient id="highcharts-1359" x1="50%" x2="50%" y1="100%" y2="0%" gradientUnits="objectBoundingBox"><stop offset="0%" stop-color="#a55c2d" stop-opacity="1"/><stop offset="100%" stop-color="#ffc199" stop-opacity="1"/></linearGradient><linearGradient id="highcharts-1360" x1="0%" x2="100%" y1="58%" y2="42%" gradientUnits="objectBoundingBox"><stop offset="0%" stop-color="#007878" stop-opacity="1"/><stop offset="100%" stop-color="#a6d8d8" stop-opacity="1"/></linearGradient><linearGradient id="highcharts-1361" x1="52%" x2="48%" y1="100%" y2="0%" gradientUnits="objectBoundingBox"><stop offset="0%" stop-color="#003131" stop-opacity="1"/><stop offset="100%" stop-color="#006a6a" stop-opacity="1"/></linearGradient><linearGradient id="highcharts-1362" x1="50%" x2="50%" y1="100%" y2="0%" gradientUnits="objectBoundingBox"><stop offset="0%" stop-color="#005c5c" stop-opacity="1"/><stop offset="100%" stop-color="#73c1c1" stop-opacity="1"/></linearGradient><linearGradient id="highcharts-1363" x1="0%" x2="100%" y1="58%" y2="42%" gradientUnits="objectBoundingBox"><stop offset="0%" stop-color="#94b7d2" stop-opacity="1"/><stop offset="100%" stop-color="#e3f2fd" stop-opacity="1"/></linearGradient><linearGradient id="highcharts-1364" x1="71%" x2="29%" y1="100%" y2="0%" gradientUnits="objectBoundingBox"><stop offset="0%" stop-color="#3d4b56" stop-opacity="1"/><stop offset="100%" stop-color="#83a2ba" stop-opacity="1"/></linearGradient><linearGradient id="highcharts-1365" x1="50%" x2="50%" y1="100%" y2="0%" gradientUnits="objectBoundingBox"><stop offset="0%" stop-color="#718ca1" stop-opacity="1"/><stop offset="100%" stop-color="#d3eafb" stop-opacity="1"/></linearGradient></defs><rect width="600" height="400" x="0" y="0" fill="#FFF" fill-opacity="1" stroke="#666" stroke-opacity="1" stroke-width="0" rx="0" ry="0"/><rect width="522" height="272" x="60" y="58" fill="url('http://localhost/test/roundabout/roundabout_09/#highcharts-1111')" stroke-width="0" rx="0" ry="0"/><path fill="#000" fill-opacity="0" d="M 121 58 L 121 330 224 330 224 58"/><path fill="#000" fill-opacity="0" d="M 326 58 L 326 330 428 330 428 58"/><path fill="#000" fill-opacity="0" d="M 531 58 L 531 330 582 330 582 58"/><path fill="none" stroke="#000" stroke-opacity="0" stroke-width=".1" d="M 121.05 58 L 121.05 330"/><text x="111" y="366" text-anchor="middle" style="font-family:Verdana;font-size:10px;line-height:14px;color:#49563a;fill:#49563a"><tspan x="111">Jan</tspan></text><path fill="none" stroke="#000" stroke-opacity="0" stroke-width=".1" d="M 224.05 58 L 224.05 330"/><text x="214" y="366" text-anchor="middle" style="font-family:Verdana;font-size:10px;line-height:14px;color:#49563a;fill:#49563a"><tspan x="214">Feb</tspan></text><path fill="none" stroke="#000" stroke-opacity="0" stroke-width=".1" d="M 326.05 58 L 326.05 330"/><text x="316" y="366" text-anchor="middle" style="font-family:Verdana;font-size:10px;line-height:14px;color:#49563a;fill:#49563a"><tspan x="316">Mar</tspan></text><path fill="none" stroke="#000" stroke-opacity="0" stroke-width=".1" d="M 428.05 58 L 428.05 330"/><text x="418" y="366" text-anchor="middle" style="font-family:Verdana;font-size:10px;line-height:14px;color:#49563a;fill:#49563a"><tspan x="418">April</tspan></text><path fill="none" stroke="#000" stroke-opacity="0" stroke-width=".1" d="M 531.05 58 L 531.05 330"/><text x="521" y="366" text-anchor="middle" style="font-family:Verdana;font-size:10px;line-height:14px;color:#49563a;fill:#49563a"><tspan x="521">May</tspan></text><path fill="#000" fill-opacity="0" d="M 60 330 L 582 330 582 276 60 276"/><path fill="#000" fill-opacity="0" d="M 60 221 L 582 221 582 167 60 167"/><path fill="#000" fill-opacity="0" d="M 60 112 L 582 112 582 58 60 58"/><g class="highcharts-canvasBase3D" lighting3D="true"><path fill="none" d="M 60 330 L 582 330 582 340"/><rect width="522" height="10" x="50" y="340" fill="url( 'http://localhost/test/roundabout/roundabout_09/#highcharts-1114'=" stroke-width="0" rx="0" ry="0"/><path fill="url('http://localhost/test/roundabout/roundabout_09/#highcharts-1112')" stroke-width="0" d="M 50 340 L 572 340 582 330 60 330 Z"/><path fill="url( 'http://localhost/test/roundabout/roundabout_09/#highcharts-1113')" stroke-width="0" d="M 572 340 L 582 330 582 340 572 350 Z"/></g><path fill="#B0B5AA" fill-opacity="1" d="M 582 58 L 585 61.6 585 327 582 330 Z"/><text x="323" y="28" class="highcharts-title" text-anchor="middle" zIndex="1" style="font-family:Verdana;font-size:13px;color:#49563a;font-weight:700;line-height:18.2px;fill:#49563a"><tspan x="323">Unique Login Activity</tspan></text><text x="323" y="44" class="highcharts-subtitle" text-anchor="middle" zIndex="1" style="font-family:Verdana;font-size:11px;color:#49563a;font-weight:700;line-height:15.399999999999999px;fill:#49563a"><tspan x="323">For Organization, Monthly</tspan></text><path fill="none" stroke="#000" stroke-opacity="0" stroke-width=".1" d="M 60 330.05 L 582 330.05" zIndex="1"/><text x="56" y="334" text-anchor="end" zIndex="1" style="font-family:Verdana;font-size:10px;line-height:14px;color:#49563a;fill:#49563a"><tspan x="56">0</tspan></text><path fill="none" stroke="#ACBB99" stroke-opacity="1" stroke-width="1" d="M 60 276.5 L 582 276.5" zIndex="2"/><text x="56" y="280" text-anchor="end" zIndex="2" style="font-family:Verdana;font-size:10px;line-height:14px;color:#49563a;fill:#49563a"><tspan x="56">12</tspan></text><path fill="none" stroke="#ACBB99" stroke-opacity="1" stroke-width="1" d="M 60 221.5 L 582 221.5" zIndex="2"/><text x="56" y="225" text-anchor="end" zIndex="2" style="font-family:Verdana;font-size:10px;line-height:14px;color:#49563a;fill:#49563a"><tspan x="56">24</tspan></text><path fill="none" stroke="#ACBB99" stroke-opacity="1" stroke-width="1" d="M 60 167.5 L 582 167.5" zIndex="2"/><text x="56" y="171" text-anchor="end" zIndex="2" style="font-family:Verdana;font-size:10px;line-height:14px;color:#49563a;fill:#49563a"><tspan x="56">36</tspan></text><path fill="none" stroke="#ACBB99" stroke-opacity="1" stroke-width="1" d="M 60 112.5 L 582 112.5" zIndex="2"/><text x="56" y="116" text-anchor="end" zIndex="2" style="font-family:Verdana;font-size:10px;line-height:14px;color:#49563a;fill:#49563a"><tspan x="56">48</tspan></text><path fill="none" stroke="#000" stroke-opacity="0" stroke-width=".1" d="M 60 58.05 L 582 58.05" zIndex="2"/><text x="56" y="62" text-anchor="end" zIndex="2" style="font-family:Verdana;font-size:10px;line-height:14px;color:#49563a;fill:#49563a"><tspan x="56">60</tspan></text><g class="highcharts-series-group" zIndex="3"><g class="highcharts-series-3d"><g r="0" class="highcharts-point" transform="translate(50,68)" zIndex="3"><path fill="none" stroke="#000" stroke-opacity=".06" stroke-width="5" d="M 46 248 L 96 248 96 262" isShadow="true" transform="translate(1,1)"/><path fill="none" stroke="#000" stroke-opacity=".12" stroke-width="3" d="M 46 248 L 96 248 96 262" isShadow="true" transform="translate(1,1)"/><path fill="none" stroke="#000" stroke-opacity=".18" stroke-width="1" d="M 46 248 L 96 248 96 262" isShadow="true" transform="translate(1,1)"/><path fill="none" d="M 46 248 L 96 248 96 262"/><rect width="50" height="14" x="36" y="258" fill="url('http://localhost/test/roundabout/roundabout_09/#highcharts-1365')" stroke="#333" stroke-opacity="1" stroke-width="0" rx="0" ry="0"/><path fill="url( 'http://localhost/test/roundabout/roundabout_09/#highcharts-1363')" stroke="#333" stroke-opacity="1" stroke-width="0" d="M 36 258 L 86 258 96 248 46 248 Z"/><path fill="url('http://localhost/test/roundabout/roundabout_09/#highcharts-1364')" stroke="#333" stroke-opacity="1" stroke-width="0" d="M 86 258 L 96 248 96 262 86 272 Z"/></g><g class="highcharts-point" transform="translate(50,68)" zIndex="3"><path fill="none" stroke="#000" stroke-opacity=".06" stroke-width="5" d="M 149 225 L 199 225 199 262" isShadow="true" transform="translate(1,1)"/><path fill="none" stroke="#000" stroke-opacity=".12" stroke-width="3" d="M 149 225 L 199 225 199 262" isShadow="true" transform="translate(1,1)"/><path fill="none" stroke="#000" stroke-opacity=".18" stroke-width="1" d="M 149 225 L 199 225 199 262" isShadow="true" transform="translate(1,1)"/><path fill="none" d="M 149 225 L 199 225 199 262"/><rect width="50" height="37" x="139" y="235" fill="url( 'http://localhost/test/roundabout/roundabout_09/#highcharts-1120')" stroke="#333" stroke-opacity="1" stroke-width="0" rx="0" ry="0"/><path fill="url('http://localhost/test/roundabout/roundabout_09/#highcharts-1118')" stroke="#333" stroke-opacity="1" stroke-width="0" d="M 139 235 L 189 235 199 225 149 225 Z"/><path fill="url( 'http://localhost/test/roundabout/roundabout_09/#highcharts-1119')" stroke="#333" stroke-opacity="1" stroke-width="0" d="M 189 235 L 199 225 199 262 189 272 Z"/></g><g r="0" class="highcharts-point" transform="translate(50,68)" zIndex="3"><path fill="none" stroke="#000" stroke-opacity=".06" stroke-width="5" d="M 251 171 L 301 171 301 262" isShadow="true" transform="translate(1,1)"/><path fill="none" stroke="#000" stroke-opacity=".12" stroke-width="3" d="M 251 171 L 301 171 301 262" isShadow="true" transform="translate(1,1)"/><path fill="none" stroke="#000" stroke-opacity=".18" stroke-width="1" d="M 251 171 L 301 171 301 262" isShadow="true" transform="translate(1,1)"/><path fill="none" d="M 251 171 L 301 171 301 262"/><rect width="50" height="91" x="241" y="181" fill="url('http://localhost/test/roundabout/roundabout_09/#highcharts-1356')" stroke="#333" stroke-opacity="1" stroke-width="0" rx="0" ry="0"/><path fill="url( 'http://localhost/test/roundabout/roundabout_09/#highcharts-1354')" stroke="#333" stroke-opacity="1" stroke-width="0" d="M 241 181 L 291 181 301 171 251 171 Z"/><path fill="url('http://localhost/test/roundabout/roundabout_09/#highcharts-1355')" stroke="#333" stroke-opacity="1" stroke-width="0" d="M 291 181 L 301 171 301 262 291 272 Z"/></g><g r="0" class="highcharts-point" transform="translate(50,68)" zIndex="3"><path fill="none" stroke="#000" stroke-opacity=".06" stroke-width="5" d="M 353 103 L 403 103 403 262" isShadow="true" transform="translate(1,1)"/><path fill="none" stroke="#000" stroke-opacity=".12" stroke-width="3" d="M 353 103 L 403 103 403 262" isShadow="true" transform="translate(1,1)"/><path fill="none" stroke="#000" stroke-opacity=".18" stroke-width="1" d="M 353 103 L 403 103 403 262" isShadow="true" transform="translate(1,1)"/><path fill="none" d="M 353 103 L 403 103 403 262"/><rect width="50" height="159" x="343" y="113" fill="url( 'http://localhost/test/roundabout/roundabout_09/#highcharts-1359')" stroke="#333" stroke-opacity="1" stroke-width="0" rx="0" ry="0"/><path fill="url('http://localhost/test/roundabout/roundabout_09/#highcharts-1357')" stroke="#333" stroke-opacity="1" stroke-width="0" d="M 343 113 L 393 113 403 103 353 103 Z"/><path fill="url( 'http://localhost/test/roundabout/roundabout_09/#highcharts-1358')" stroke="#333" stroke-opacity="1" stroke-width="0" d="M 393 113 L 403 103 403 262 393 272 Z"/></g><g r="0" class="highcharts-point" transform="translate(50,68)" zIndex="3"><path fill="none" stroke="#000" stroke-opacity=".06" stroke-width="5" d="M 456 35 L 506 35 506 262" isShadow="true" transform="translate(1,1)"/><path fill="none" stroke="#000" stroke-opacity=".12" stroke-width="3" d="M 456 35 L 506 35 506 262" isShadow="true" transform="translate(1,1)"/><path fill="none" stroke="#000" stroke-opacity=".18" stroke-width="1" d="M 456 35 L 506 35 506 262" isShadow="true" transform="translate(1,1)"/><path fill="none" d="M 456 35 L 506 35 506 262"/><rect width="50" height="227" x="446" y="45" fill="url('http://localhost/test/roundabout/roundabout_09/#highcharts-1362')" stroke="#333" stroke-opacity="1" stroke-width="0" rx="0" ry="0"/><path fill="url( 'http://localhost/test/roundabout/roundabout_09/#highcharts-1360')" stroke="#333" stroke-opacity="1" stroke-width="0" d="M 446 45 L 496 45 506 35 456 35 Z"/><path fill="url('http://localhost/test/roundabout/roundabout_09/#highcharts-1361')" stroke="#333" stroke-opacity="1" stroke-width="0" d="M 496 45 L 506 35 506 262 496 272 Z"/></g></g></g><g class="highcharts-data-labels" zIndex="6"><text x="61" y="252" text-anchor="middle" transform="translate(60,58)" zIndex="1" style="font-family:Verdana;font-size:10px;color:#49563a;line-height:14px;fill:#49563a"><tspan x="61">3</tspan></text><text x="164" y="230" text-anchor="middle" transform="translate(60,58)" zIndex="1" style="font-family:Verdana;font-size:10px;color:#49563a;line-height:14px;fill:#49563a"><tspan x="164">8</tspan></text><text x="266" y="175" text-anchor="middle" transform="translate(60,58)" zIndex="1" style="font-family:Verdana;font-size:10px;color:#49563a;line-height:14px;fill:#49563a"><tspan x="266">20</tspan></text><text x="368" y="107" text-anchor="middle" transform="translate(60,58)" zIndex="1" style="font-family:Verdana;font-size:10px;color:#49563a;line-height:14px;fill:#49563a"><tspan x="368">35</tspan></text><text x="471" y="39" text-anchor="middle" transform="translate(60,58)" zIndex="1" style="font-family:Verdana;font-size:10px;color:#49563a;line-height:14px;fill:#49563a"><tspan x="471">50</tspan></text></g><text x="321" y="381" text-anchor="middle" zIndex="7" style="font-family:Verdana;font-size:10px;color:#49563a;font-weight:700;line-height:14px;fill:#49563a"><tspan x="321">Month</tspan></text><text x="29.3" y="194" text-anchor="middle" transform="rotate(270 29.299999999999997 194)" zIndex="7" style="font-family:Verdana;font-size:10px;color:#49563a;font-weight:700;line-height:14px;fill:#49563a"><tspan x="29.3">Logins</tspan></text><g class="highcharts-tooltip" transform="translate(49,301)" visibility="hidden" zIndex="8"><rect width="42" height="20" x="5.5" y="5.5" fill="#FFF" fill-opacity="1" stroke="#545454" stroke-opacity="1" stroke-width="1" rx="1" ry="1"/><text x="9" y="19" zIndex="1" style="font-family:Verdana;font-size:10px;color:#49563a;padding:0;white-space:nowrap;line-height:14px;fill:#49563a"><tspan x="9">Jan, 3</tspan></text></g><g class="highcharts-tracker" zIndex="9"><path fill="silver" fill-opacity="0" d="M 26 268 L 26 282 76 282 86 272 86 258 36 258 Z" isTracker="1344977641590" transform="translate(60,58)" zIndex="-1"/><path fill="silver" fill-opacity="0" d="M 129 245 L 129 282 179 282 189 272 189 235 139 235 Z" isTracker="1344977641591" transform="translate(60,58)" zIndex="-1"/><path fill="silver" fill-opacity="0" d="M 231 191 L 231 282 281 282 291 272 291 181 241 181 Z" isTracker="1344977641591" transform="translate(60,58)" zIndex="-1"/><path fill="silver" fill-opacity="0" d="M 333 123 L 333 282 383 282 393 272 393 113 343 113 Z" isTracker="1344977641592" transform="translate(60,58)" zIndex="-1"/><path fill="silver" fill-opacity="0" d="M 436 55 L 436 282 486 282 496 272 496 45 446 45 Z" isTracker="1344977641592" transform="translate(60,58)" zIndex="-1"/></g></svg>