<svg id="target_svg" width="200" height="100"><defs><pattern id="background_pattern" width="16" height="16" patternUnits="userSpaceOnUse"><g style="fill:#00f;stroke:none"><path d="M0,0 L0,4 L4,0 M0,12 L0,16 L4,16 L16,4 L16,0 L12,0 M16,16 L16,12 L12,16"/></g></pattern><pattern id="foreground_pattern" width="16" height="16" patternUnits="userSpaceOnUse"><g style="fill:#00f;stroke:none"><path d="M0,0 L0,4 L4,0 M0,12 L0,16 L4,16 L16,4 L16,0 L12,0 M16,16 L16,12 L12,16"/></g></pattern></defs><g style="stroke-opacity:1;fill-opacity:1" transform="translate(0,0)"><rect width="80" height="20" x="10" y="10" style="fill:#00f;stroke:#000;stroke-width:3px"/><rect width="80" height="20" x="10" y="40" style="fill:url(#background_pattern);stroke:#000;stroke-width:3px"/><rect width="20" height="60" x="20" y="20" style="fill:red;stroke:none"/><rect width="20" height="60" x="60" y="20" style="fill:url(#foreground_pattern);stroke:none"/></g><g id="target_svg_transparent" transform="translate(100,0)" style="fill-opacity:.5"><rect style="fill:#00f;stroke:#000;stroke-width:3px" width="80" height="20" x="10" y="10"/><rect width="80" height="20" x="10" y="40" style="fill:url(#background_pattern);stroke:#000;stroke-width:3px"/><rect width="20" height="60" x="20" y="20" style="fill:red;stroke:none"/><rect width="20" height="60" x="60" y="20" style="fill:url(#foreground_pattern);stroke:none"/></g></svg>