<svg xmlns="http://www.w3.org/2000/svg" width="816.75" height="425.344" preserveAspectRatio="xMinYMin meet" version="1.1" viewBox="0 0 816.75 425.344" style="overflow:hidden;position:relative;left:-.5px"><desc style="-webkit-tap-highlight-color:transparent">Created with Raphaël 2.1.0</desc><defs style="-webkit-tap-highlight-color:transparent"><marker id="raphael-marker-endblock33" markerHeight="3" markerWidth="3" orient="auto" refX="1.5" refY="1.5" style="-webkit-tap-highlight-color:transparent"><use xmlns:xlink="http://www.w3.org/1999/xlink" fill="#000" stroke="none" stroke-width="1.667" transform="rotate(180 1.5 1.5) scale(0.6,0.6)" xlink:href="#raphael-marker-block" style="-webkit-tap-highlight-color:transparent"/></marker><path id="raphael-marker-block" stroke-linecap="round" d="M5,0 0,2.5 5,5z" style="-webkit-tap-highlight-color:transparent"/></defs><a xmlns:xlink="http://www.w3.org/1999/xlink" xlink:href="http://www.google.com" xlink:show="new" style="-webkit-tap-highlight-color:transparent"><rect style="-webkit-tap-highlight-color:transparent" id="st" width="50" height="36" x="0" y="0" r="20" fill="#fff" stroke="#000" stroke-width="3" class="flowchart" rx="20" ry="20" transform="matrix(1,0,0,1,69,27.5859)"/><text id="stt" x="10" y="18" fill="#000" stroke="none" stroke-width="1" class="flowchartt" font="10px &quot;Arial&quot;" font-size="14" text-anchor="start" transform="matrix(1,0,0,1,69,27.5859)" style="-webkit-tap-highlight-color:transparent;text-anchor:start;font-style:normal;font-variant:normal;font-weight:400;font-stretch:normal;font-size:14px;line-height:normal;font-family:Arial"><tspan dy="5" style="-webkit-tap-highlight-color:transparent">Start</tspan></text></a><rect style="-webkit-tap-highlight-color:transparent" id="op1" width="106" height="36" x="0" y="0" r="0" fill="#fff" stroke="#000" stroke-width="3" class="flowchart" rx="0" ry="0" transform="matrix(1,0,0,1,41,141.1719)"/><text id="op1t" x="10" y="18" fill="#000" stroke="none" stroke-width="1" class="flowchartt" font="10px &quot;Arial&quot;" font-size="14" text-anchor="start" transform="matrix(1,0,0,1,41,141.1719)" style="-webkit-tap-highlight-color:transparent;text-anchor:start;font-style:normal;font-variant:normal;font-weight:400;font-stretch:normal;font-size:14px;line-height:normal;font-family:Arial"><tspan dy="5" style="-webkit-tap-highlight-color:transparent">My Operation</tspan></text><a xmlns:xlink="http://www.w3.org/1999/xlink" xlink:href="http://www.google.com" style="-webkit-tap-highlight-color:transparent"><path id="cond" fill="#fff" stroke="#000" stroke-width="3" d="M27.375,19.79296875L0,39.5859375L54.75,79.171875L109.5,39.5859375L54.75,0L0,39.5859375" class="flowchart" transform="matrix(1,0,0,1,236.25,119.5859)" style="-webkit-tap-highlight-color:transparent"/><text id="condt" x="32.375" y="39.586" fill="#000" stroke="none" stroke-width="1" class="flowchartt" font="10px &quot;Arial&quot;" font-size="14" text-anchor="start" transform="matrix(1,0,0,1,236.25,119.5859)" style="-webkit-tap-highlight-color:transparent;text-anchor:start;font-style:normal;font-variant:normal;font-weight:400;font-stretch:normal;font-size:14px;line-height:normal;font-family:Arial"><tspan dy="-3.391" style="-webkit-tap-highlight-color:transparent">Yes </tspan><tspan x="32.375" dy="16.8" style="-webkit-tap-highlight-color:transparent">or No?</tspan></text></a><path id="c2" fill="#fff" stroke="#000" stroke-width="3" d="M36,18L0,36L72,72L144,36L72,0L0,36" class="flowchart" transform="matrix(1,0,0,1,417.75,123.1719)" style="-webkit-tap-highlight-color:transparent"/><text id="c2t" x="41" y="36" fill="#000" stroke="none" stroke-width="1" class="flowchartt" font="10px &quot;Arial&quot;" font-size="14" text-anchor="start" transform="matrix(1,0,0,1,417.75,123.1719)" style="-webkit-tap-highlight-color:transparent;text-anchor:start;font-style:normal;font-variant:normal;font-weight:400;font-stretch:normal;font-size:14px;line-height:normal;font-family:Arial"><tspan dy="5" style="-webkit-tap-highlight-color:transparent">Good idea</tspan></text><path id="io" fill="#fff" stroke="#000" stroke-width="3" d="M10,18L0,36L156,36L176,0L20,0L10,18" class="flowchart" transform="matrix(1,0,0,1,401.75,272.7578)" style="-webkit-tap-highlight-color:transparent"/><text id="iot" x="30" y="18" fill="#000" stroke="none" stroke-width="1" class="flowchartt" font="10px &quot;Arial&quot;" font-size="14" text-anchor="start" transform="matrix(1,0,0,1,401.75,272.7578)" style="-webkit-tap-highlight-color:transparent;text-anchor:start;font-style:normal;font-variant:normal;font-weight:400;font-stretch:normal;font-size:14px;line-height:normal;font-family:Arial"><tspan dy="5" style="-webkit-tap-highlight-color:transparent">catch something...</tspan></text><a xmlns:xlink="http://www.w3.org/1999/xlink" xlink:href="http://www.google.com" style="-webkit-tap-highlight-color:transparent"><rect style="-webkit-tap-highlight-color:transparent" id="e" width="53" height="36" x="0" y="0" r="20" fill="#fff" stroke="#000" stroke-width="3" class="flowchart" rx="20" ry="20" transform="matrix(1,0,0,1,463.25,386.3438)"/><text id="et" x="10" y="18" fill="#000" stroke="none" stroke-width="1" class="flowchartt" font="10px &quot;Arial&quot;" font-size="14" text-anchor="start" transform="matrix(1,0,0,1,463.25,386.3438)" style="-webkit-tap-highlight-color:transparent;text-anchor:start;font-style:normal;font-variant:normal;font-weight:400;font-stretch:normal;font-size:14px;line-height:normal;font-family:Arial"><tspan dy="5" style="-webkit-tap-highlight-color:transparent">Ende</tspan></text></a><rect style="-webkit-tap-highlight-color:transparent" id="op2" width="49" height="36" x="0" y="0" r="0" fill="#fff" stroke="#000" stroke-width="3" class="flowchart" rx="0" ry="0" transform="matrix(1,0,0,1,681.25,141.1719)"/><text id="op2t" x="10" y="18" fill="#000" stroke="none" stroke-width="1" class="flowchartt" font="10px &quot;Arial&quot;" font-size="14" text-anchor="start" transform="matrix(1,0,0,1,681.25,141.1719)" style="-webkit-tap-highlight-color:transparent;text-anchor:start;font-style:normal;font-variant:normal;font-weight:400;font-stretch:normal;font-size:14px;line-height:normal;font-family:Arial"><tspan dy="5" style="-webkit-tap-highlight-color:transparent">Stuff</tspan></text><rect style="-webkit-tap-highlight-color:transparent" id="sub1" width="132" height="36" x="0" y="0" r="0" fill="#fff" stroke="#000" stroke-width="3" class="flowchart" rx="0" ry="0" transform="matrix(1,0,0,1,225,276.3438)"/><rect fill="#fff" style="-webkit-tap-highlight-color:transparent" id="sub1i" width="112" height="36" x="10" y="0" r="0" stroke="#000" stroke-width="3" rx="0" ry="0" transform="matrix(1,0,0,1,225,276.3438)"/><text id="sub1t" x="20" y="18" fill="#000" stroke="none" stroke-width="1" class="flowchartt" font="10px &quot;Arial&quot;" font-size="14" text-anchor="start" transform="matrix(1,0,0,1,225,276.3438)" style="-webkit-tap-highlight-color:transparent;text-anchor:start;font-style:normal;font-variant:normal;font-weight:400;font-stretch:normal;font-size:14px;line-height:normal;font-family:Arial"><tspan dy="5" style="-webkit-tap-highlight-color:transparent">My Subroutine</tspan></text><path fill="none" stroke="#000" stroke-width="3" marker-end="url(#raphael-marker-endblock33)" d="M94,63.5859375C94,63.5859375,94,120.10643348097801,94,136.66517253790516" style="-webkit-tap-highlight-color:transparent"/><path fill="none" stroke="#000" stroke-width="3" marker-end="url(#raphael-marker-endblock33)" d="M147,159.171875C147,159.171875,213.62687654793262,159.171875,231.7475651403147,159.171875" style="-webkit-tap-highlight-color:transparent"/><path fill="none" stroke="#000" stroke-width="3" marker-end="url(#raphael-marker-endblock33)" d="M345.75,159.171875C345.75,159.171875,397.4835205078125,159.171875,413.2460775375366,159.171875" style="-webkit-tap-highlight-color:transparent"/><text x="350.75" y="149.172" fill="#000" stroke="none" stroke-width="1" font="10px &quot;Arial&quot;" font-size="14" text-anchor="start" style="-webkit-tap-highlight-color:transparent;text-anchor:start;font-style:normal;font-variant:normal;font-weight:400;font-stretch:normal;font-size:14px;line-height:normal;font-family:Arial"><tspan dy="5" style="-webkit-tap-highlight-color:transparent">yes</tspan></text><path fill="none" stroke="#000" stroke-width="3" marker-end="url(#raphael-marker-endblock33)" d="M291,198.7578125C291,198.7578125,291,255.278308480978,291,271.83704753790516" style="-webkit-tap-highlight-color:transparent"/><text x="296" y="208.758" fill="#000" stroke="none" stroke-width="1" font="10px &quot;Arial&quot;" font-size="14" text-anchor="start" style="-webkit-tap-highlight-color:transparent;text-anchor:start;font-style:normal;font-variant:normal;font-weight:400;font-stretch:normal;font-size:14px;line-height:normal;font-family:Arial"><tspan dy="5.008" style="-webkit-tap-highlight-color:transparent">no</tspan></text><path fill="none" stroke="#000" stroke-width="3" marker-end="url(#raphael-marker-endblock33)" d="M489.75,195.171875C489.75,195.171875,489.75,251.692370980978,489.75,268.25111003790516" style="-webkit-tap-highlight-color:transparent"/><text x="494.75" y="205.172" fill="#000" stroke="none" stroke-width="1" font="10px &quot;Arial&quot;" font-size="14" text-anchor="start" style="-webkit-tap-highlight-color:transparent;text-anchor:start;font-style:normal;font-variant:normal;font-weight:400;font-stretch:normal;font-size:14px;line-height:normal;font-family:Arial"><tspan dy="5" style="-webkit-tap-highlight-color:transparent">yes</tspan></text><path fill="none" stroke="#000" stroke-width="3" marker-end="url(#raphael-marker-endblock33)" d="M561.75,159.171875C561.75,159.171875,654.9863222837448,159.171875,676.7475342230173,159.171875" style="-webkit-tap-highlight-color:transparent"/><text x="566.75" y="149.172" fill="#000" stroke="none" stroke-width="1" font="10px &quot;Arial&quot;" font-size="14" text-anchor="start" style="-webkit-tap-highlight-color:transparent;text-anchor:start;font-style:normal;font-variant:normal;font-weight:400;font-stretch:normal;font-size:14px;line-height:normal;font-family:Arial"><tspan dy="5" style="-webkit-tap-highlight-color:transparent">no</tspan></text><path fill="none" stroke="#000" stroke-width="3" marker-end="url(#raphael-marker-endblock33)" d="M489.75,308.7578125C489.75,308.7578125,489.75,365.278308480978,489.75,381.83704753790516" style="-webkit-tap-highlight-color:transparent"/><path fill="none" stroke="#000" stroke-width="3" marker-end="url(#raphael-marker-endblock33)" d="M705.75,177.171875C705.75,177.171875,705.75,361.34375,705.75,361.34375C705.75,361.34375,489.75,361.34375,489.75,361.34375C489.75,361.34375,489.75,374.6477212905884,489.75,381.8453776333481" style="-webkit-tap-highlight-color:transparent"/><path fill="none" stroke="#000" stroke-width="3" marker-end="url(#raphael-marker-endblock33)" d="M225,294.34375C225,294.34375,159.5,294.34375,159.5,294.34375C159.5,294.34375,159.5,165.171875,159.5,165.171875C159.5,165.171875,171.5,159.171875,159.5,153.171875C159.5,153.171875,159.5,116.171875,159.5,116.171875C159.5,116.171875,94,116.171875,94,116.171875C94,116.171875,94,129.47584629058838,94,136.6735026333481" style="-webkit-tap-highlight-color:transparent"/></svg>