<svg width="600" height="300" style="overflow:hidden"><defs id="defs"><clipPath id="_ABSTRACT_RENDERER_ID_0"><rect width="400" height="185" x="100" y="58"/></clipPath></defs><rect width="600" height="300" x="0" y="0" fill="#fff" stroke="none" stroke-width="0"/><g><rect width="76" height="12" x="512" y="58" fill="#fff" fill-opacity="0" stroke="none" stroke-width="0"/><g><rect width="76" height="12" x="512" y="58" fill="#fff" fill-opacity="0" stroke="none" stroke-width="0"/><g><text x="529" y="68.2" fill="#222" stroke="none" stroke-width="0" font-family="Arial" font-size="12" text-anchor="start">Y</text></g><rect width="12" height="12" x="512" y="58" fill="#36c" stroke="none" stroke-width="0"/></g></g><g><rect width="400" height="185" x="100" y="58" fill="#fff" fill-opacity="0" stroke="none" stroke-width="0"/><g clip-path="url(#_ABSTRACT_RENDERER_ID_0)"><g><rect width="1" height="185" x="100" y="58" fill="#ccc" stroke="none" stroke-width="0"/><rect width="1" height="185" x="181" y="58" fill="#ccc" stroke="none" stroke-width="0"/><rect width="1" height="185" x="261" y="58" fill="#ccc" stroke="none" stroke-width="0"/><rect width="1" height="185" x="342" y="58" fill="#ccc" stroke="none" stroke-width="0"/><rect width="1" height="185" x="422" y="58" fill="#ccc" stroke="none" stroke-width="0"/><rect width="400" height="1" x="100" y="242" fill="#ccc" stroke="none" stroke-width="0"/><rect width="400" height="1" x="100" y="196" fill="#ccc" stroke="none" stroke-width="0"/><rect width="400" height="1" x="100" y="150" fill="#ccc" stroke="none" stroke-width="0"/><rect width="400" height="1" x="100" y="104" fill="#ccc" stroke="none" stroke-width="0"/><rect width="400" height="1" x="100" y="58" fill="#ccc" stroke="none" stroke-width="0"/></g><g><rect width="1" height="185" x="100" y="58" fill="#333" stroke="none" stroke-width="0"/><rect width="400" height="1" x="100" y="242" fill="#333" stroke="none" stroke-width="0"/></g><g><path fill="none" fill-opacity="1" stroke="#36c" stroke-width="2" d="M100.5,134.4L104.53030303030303,129.8L108.56060606060606,136.7L112.5909090909091,125.2L116.62121212121212,113.70000000000002L120.65151515151516,106.80000000000001L124.68181818181819,99.9L128.71212121212122,90.70000000000002L132.74242424242425,102.20000000000002L136.77272727272728,111.4L140.8030303030303,120.60000000000001L144.83333333333334,111.4L148.86363636363637,120.60000000000001L152.89393939393938,132.10000000000002L156.92424242424244,143.60000000000002L160.95454545454544,134.4L164.9848484848485,145.9L169.0151515151515,155.10000000000002L173.04545454545456,159.7L177.07575757575756,162L181.10606060606062,171.2L185.13636363636363,173.5L189.16666666666669,162L193.1969696969697,164.3L197.22727272727272,173.5L201.25757575757575,162L205.28787878787878,150.5L209.3181818181818,143.60000000000002L213.34848484848484,150.5L217.37878787878788,148.2L221.4090909090909,145.9L225.43939393939394,139L229.46969696969697,150.5L233.5,139L237.53030303030303,129.8L241.56060606060606,127.50000000000001L245.5909090909091,125.2L249.62121212121212,120.60000000000001L253.65151515151516,118.30000000000001L257.6818181818182,113.70000000000002L261.71212121212125,122.9L265.74242424242425,116.00000000000001L269.77272727272725,109.10000000000002L273.8030303030303,106.80000000000001L277.83333333333337,118.30000000000001L281.8636363636364,127.50000000000001L285.8939393939394,139L289.92424242424244,132.10000000000002L293.95454545454544,143.60000000000002L297.9848484848485,148.2L302.0151515151515,136.7L306.0454545454545,143.60000000000002L310.07575757575756,136.7L314.1060606060606,145.9L318.1363636363636,155.10000000000002L322.16666666666663,162L326.1969696969697,150.5L330.22727272727275,159.7L334.25757575757575,150.5L338.28787878787875,145.9L342.3181818181818,141.3L346.3484848484849,152.8L350.3787878787879,157.4L354.4090909090909,155.10000000000002L358.43939393939394,150.5L362.46969696969694,162L366.5,150.5L370.530303030303,145.9L374.56060606060606,150.5L378.59090909090907,157.4L382.6212121212121,159.7L386.6515151515151,162L390.6818181818182,171.2L394.7121212121212,175.8L398.74242424242425,187.3L402.77272727272725,185L406.8030303030303,175.8L410.8333333333333,168.9L414.8636363636364,171.2L418.8939393939394,175.8L422.92424242424244,171.2L426.95454545454544,178.10000000000002L430.9848484848485,171.2L435.0151515151515,182.7L439.04545454545456,180.4L443.07575757575756,178.10000000000002L447.1060606060606,189.6L451.1363636363636,178.10000000000002L455.1666666666667,187.3L459.1969696969697,191.9L463.22727272727275,201.1L467.25757575757575,189.6L471.2878787878788,185L475.3181818181818,182.7L479.3484848484849,185L483.3787878787879,187.3L487.4090909090909,194.2L491.43939393939394,191.9L495.46969696969694,201.1L499.5,203.4"/></g></g><g><g><text x="100.5" y="260.2" fill="#444" stroke="none" stroke-width="0" font-family="Arial" font-size="12" text-anchor="middle">0</text></g><g><text x="181.106" y="260.2" fill="#444" stroke="none" stroke-width="0" font-family="Arial" font-size="12" text-anchor="middle">20</text></g><g><text x="261.712" y="260.2" fill="#444" stroke="none" stroke-width="0" font-family="Arial" font-size="12" text-anchor="middle">40</text></g><g><text x="342.318" y="260.2" fill="#444" stroke="none" stroke-width="0" font-family="Arial" font-size="12" text-anchor="middle">60</text></g><g><text x="422.924" y="260.2" fill="#444" stroke="none" stroke-width="0" font-family="Arial" font-size="12" text-anchor="middle">80</text></g><g><text x="88" y="246.7" fill="#444" stroke="none" stroke-width="0" font-family="Arial" font-size="12" text-anchor="end">0</text></g><g><text x="88" y="200.7" fill="#444" stroke="none" stroke-width="0" font-family="Arial" font-size="12" text-anchor="end">20</text></g><g><text x="88" y="154.7" fill="#444" stroke="none" stroke-width="0" font-family="Arial" font-size="12" text-anchor="end">40</text></g><g><text x="88" y="108.7" fill="#444" stroke="none" stroke-width="0" font-family="Arial" font-size="12" text-anchor="end">60</text></g><g><text x="88" y="62.7" fill="#444" stroke="none" stroke-width="0" font-family="Arial" font-size="12" text-anchor="end">80</text></g></g></g></svg>